HIERARCHY
ROOT hip
{
  OFFSET 0 0 0
  CHANNELS 6 Xposition Yposition Zposition Zrotation Yrotation Xrotation
  JOINT abdomen
  {
    OFFSET 0 20.6881 -0.73152
    CHANNELS 3 Zrotation Xrotation Yrotation
    JOINT chest
    {
      OFFSET 0 11.7043 -0.48768
      CHANNELS 3 Zrotation Xrotation Yrotation
      JOINT neck
      {
        OFFSET 0 22.1894 -2.19456
        CHANNELS 3 Zrotation Xrotation Yrotation
        JOINT head
        {
          OFFSET -0.24384 7.07133 1.2192
          CHANNELS 3 Zrotation Xrotation Yrotation
          JOINT leftEye
          {
            OFFSET 4.14528 8.04674 8.04672
            CHANNELS 3 Zrotation Xrotation Yrotation
            End Site
            {
              OFFSET 1 0 0
            }
          }
          JOINT rightEye
          {
            OFFSET -3.6576 8.04674 8.04672
            CHANNELS 3 Zrotation Xrotation Yrotation
            End Site
            {
              OFFSET 1 0 0
            }
          }
        }
      }
      JOINT rCollar
      {
        OFFSET -2.68224 19.2634 -4.8768
        CHANNELS 3 Zrotation Xrotation Yrotation
        JOINT rShldr
        {
          OFFSET -8.77824 -1.95073 1.46304
          CHANNELS 3 Zrotation Xrotation Yrotation
          JOINT rForeArm
          {
            OFFSET -28.1742 -1.7115 0.48768
            CHANNELS 3 Zrotation Xrotation Yrotation
            JOINT rHand
            {
              OFFSET -22.5879 0.773209 7.07136
              CHANNELS 3 Zrotation Xrotation Yrotation
              JOINT rThumb1
              {
                OFFSET -1.2192 -0.487915 3.41376
                CHANNELS 3 Zrotation Xrotation Yrotation
                JOINT rThumb2
                {
                  OFFSET -3.37035 -0.52449 3.41376
                  CHANNELS 3 Zrotation Xrotation Yrotation
                  End Site
                  {
                    OFFSET -1.78271 -1.18214 1.43049
                  }
                }
              }
              JOINT rIndex1
              {
                OFFSET -7.75947 0.938293 5.60832
                CHANNELS 3 Zrotation Xrotation Yrotation
                JOINT rIndex2
                {
                  OFFSET -2.54057 -0.884171 1.56538
                  CHANNELS 3 Zrotation Xrotation Yrotation
                  End Site
                  {
                    OFFSET -1.62519 -0.234802 1.16502
                  }
                }
              }
              JOINT rMid1
              {
                OFFSET -8.24714 1.18213 3.41376
                CHANNELS 3 Zrotation Xrotation Yrotation
                JOINT rMid2
                {
                  OFFSET -3.10165 -0.590103 1.0647
                  CHANNELS 3 Zrotation Xrotation Yrotation
                  End Site
                  {
                    OFFSET -2.48547 -0.328903 0.83742
                  }
                }
              }
              JOINT rRing1
              {
                OFFSET -8.82822 0.546677 1.51678
                CHANNELS 3 Zrotation Xrotation Yrotation
                JOINT rRing2
                {
                  OFFSET -2.60934 -0.819778 -0.0198488
                  CHANNELS 3 Zrotation Xrotation Yrotation
                  End Site
                  {
                    OFFSET -2.33842 -0.294052 0.168128
                  }
                }
              }
              JOINT rPinky1
              {
                OFFSET -8.27202 -0.0477905 -0.4584
                CHANNELS 3 Zrotation Xrotation Yrotation
                JOINT rPinky2
                {
                  OFFSET -1.82734 -0.647385 -0.700984
                  CHANNELS 3 Zrotation Xrotation Yrotation
                  End Site
                  {
                    OFFSET -1.69225 -0.51767 -0.607171
                  }
                }
              }
            }
          }
        }
      }
      JOINT lCollar
      {
        OFFSET 2.68224 19.2634 -4.8768
        CHANNELS 3 Zrotation Xrotation Yrotation
        JOINT lShldr
        {
          OFFSET 8.77824 -1.95073 1.46304
          CHANNELS 3 Zrotation Xrotation Yrotation
          JOINT lForeArm
          {
            OFFSET 28.1742 -1.7115 0.48768
            CHANNELS 3 Zrotation Xrotation Yrotation
            JOINT lHand
            {
              OFFSET 22.5879 0.773209 7.07136
              CHANNELS 3 Zrotation Xrotation Yrotation
              JOINT lThumb1
              {
                OFFSET 1.2192 -0.487915 3.41376
                CHANNELS 3 Zrotation Xrotation Yrotation
                JOINT lThumb2
                {
                  OFFSET 3.37035 -0.52449 3.41376
                  CHANNELS 3 Zrotation Xrotation Yrotation
                  End Site
                  {
                    OFFSET 1.78271 -1.18214 1.43049
                  }
                }
              }
              JOINT lIndex1
              {
                OFFSET 7.75947 0.938293 5.60832
                CHANNELS 3 Zrotation Xrotation Yrotation
                JOINT lIndex2
                {
                  OFFSET 2.54057 -0.884171 1.56538
                  CHANNELS 3 Zrotation Xrotation Yrotation
                  End Site
                  {
                    OFFSET 1.62519 -0.234802 1.16502
                  }
                }
              }
              JOINT lMid1
              {
                OFFSET 8.24714 1.18213 3.41376
                CHANNELS 3 Zrotation Xrotation Yrotation
                JOINT lMid2
                {
                  OFFSET 3.10165 -0.590103 1.0647
                  CHANNELS 3 Zrotation Xrotation Yrotation
                  End Site
                  {
                    OFFSET 2.48547 -0.328903 0.83742
                  }
                }
              }
              JOINT lRing1
              {
                OFFSET 8.82822 0.546677 1.51678
                CHANNELS 3 Zrotation Xrotation Yrotation
                JOINT lRing2
                {
                  OFFSET 2.60934 -0.819778 -0.0198488
                  CHANNELS 3 Zrotation Xrotation Yrotation
                  End Site
                  {
                    OFFSET 2.33842 -0.294052 0.168128
                  }
                }
              }
              JOINT lPinky1
              {
                OFFSET 8.27202 -0.0477905 -0.4584
                CHANNELS 3 Zrotation Xrotation Yrotation
                JOINT lPinky2
                {
                  OFFSET 1.82734 -0.647385 -0.700984
                  CHANNELS 3 Zrotation Xrotation Yrotation
                  End Site
                  {
                    OFFSET 1.69225 -0.51767 -0.607171
                  }
                }
              }
            }
          }
        }
      }
    }
  }
  JOINT rButtock
  {
    OFFSET -8.77824 4.35084 1.2192
    CHANNELS 3 Zrotation Xrotation Yrotation
    JOINT rThigh
    {
      OFFSET 0 -1.70687 -2.19456
      CHANNELS 3 Zrotation Xrotation Yrotation
      JOINT rShin
      {
        OFFSET 0 -36.8199 0.73152
        CHANNELS 3 Zrotation Xrotation Yrotation
        JOINT rFoot
        {
          OFFSET 0.73152 -45.1104 -5.12064
          CHANNELS 3 Zrotation Xrotation Yrotation
          End Site
          {
            OFFSET -1.1221 -3.69964 12.103
          }
        }
      }
    }
  }
  JOINT lButtock
  {
    OFFSET 8.77824 4.35084 1.2192
    CHANNELS 3 Zrotation Xrotation Yrotation
    JOINT lThigh
    {
      OFFSET 0 -1.70687 -2.19456
      CHANNELS 3 Zrotation Xrotation Yrotation
      JOINT lShin
      {
        OFFSET 0 -36.8199 0.73152
        CHANNELS 3 Zrotation Xrotation Yrotation
        JOINT lFoot
        {
          OFFSET -0.73152 -45.1104 -5.12064
          CHANNELS 3 Zrotation Xrotation Yrotation
          End Site
          {
            OFFSET 1.1221 -3.69964 12.103
          }
        }
      }
    }
  }
}
MOTION
Frames:	4
Frame Time:	0.03333
0.014399999752640724 44.05229949951172 -0.18619999289512634 -167.59400010108948 82.58789777755737 -158.58600497245789 -5.610120110213757 12.906699925661087 16.919200122356415 -3.5326000303030014 -12.953200042247772 4.123170152306557 1.1268199793994427 14.830499589443207 12.764100283384323 -0.9189480263739824 -20.8249993622303 24.99699980020523 0.0 0.0 0.0 0.0 0.0 0.0 0.0 0.0 0.0 22.13679939508438 65.14740228652954 37.97329902648926 -27.35859900712967 -42.97300100326538 89.43639814853668 -0.01306630001636222 3.2649799436330795 0.45936400070786476 -2.353317540837452e-10 6.4434857449668925e-09 1.3812950783176348e-09 -4.092726157978177e-10 1.1162910595885478e-08 2.3942448024172336e-09 -2.353317540837452e-10 6.4434857449668925e-09 1.3812950783176348e-09 7.7309102565050125 5.474880114197731 0.41731400415301323 -2.353317540837452e-10 6.4434857449668925e-09 1.3812950783176348e-09 2.905540131032467 0.9651830233633518 0.102901995414868 -2.353317540837452e-10 6.4434857449668925e-09 1.3812950783176348e-09 10.27859978377819 0.7318009994924068 0.025912300043273717 -2.353317540837452e-10 6.4434857449668925e-09 1.3812950783176348e-09 2.221670038998127 -0.733487019315362 -0.2089200052432716 0.0 0.0 0.0 -53.50360035896301 7.8481898456811905 -16.79550066590309 27.201400101184845 -43.45200061798096 -90.36489844322205 2.275729961693287 -38.72300058603287 6.470210328698158 -2.0898482944176067e-09 7.059952622512355e-10 -9.617906471248716e-10 -3.5862512959283777e-09 1.1357315088389441e-09 -1.7189449863508344e-09 -2.0898482944176067e-09 7.059952622512355e-10 -9.617906471248716e-10 -7.7309102565050125 5.474880114197731 -0.41731400415301323 -2.0898482944176067e-09 7.059952622512355e-10 -9.617906471248716e-10 -2.905540131032467 0.9651830233633518 -0.102901995414868 -2.0898482944176067e-09 7.059952622512355e-10 -9.617906471248716e-10 -10.27859978377819 0.7318009994924068 -0.025912300043273717 -2.0898482944176067e-09 7.059952622512355e-10 -9.617906471248716e-10 -2.221670038998127 -0.733487019315362 0.2089200052432716 0.0 0.0 0.0 -77.94879734516144 -37.526799738407135 -65.0628000497818 -173.15799593925476 81.0666024684906 175.09000182151794 -1.870179958641529 -24.716100096702576 -4.759289883077145 0.0 0.0 0.0 93.97560238838196 -51.648101806640625 77.02860116958618 169.21800255775452 83.79329860210419 -169.82200384140015 -7.523189932107925 -21.523899883031845 -11.597899943590164
0.022699999623000622 43.43619918823242 -0.3528999984264374 -166.82500004768372 82.48320043087006 -158.02899599075317 -5.419149845838547 13.107299655675888 16.96119949221611 -3.5260098427534103 -12.980400323867798 4.131539985537529 1.1650500074028969 14.793100208044052 12.74820014834404 -0.8570660278201103 -20.60010015964508 24.978100955486298 0.0 0.0 0.0 0.0 0.0 0.0 0.0 0.0 0.0 21.17619976401329 64.92999851703644 38.91650050878525 -27.386499345302582 -42.883900701999664 89.26499962806702 -0.0153955994755961 3.5411301255226135 0.49831298645585775 -1.4388490399142029e-09 1.6785293155408e-08 2.6398083718959242e-09 -2.488889094820479e-09 2.9053239813947584e-08 4.56850557384314e-09 -1.4388490399142029e-09 1.6785293155408e-08 2.6398083718959242e-09 7.7309102565050125 5.474880114197731 0.41731400415301323 -1.4388490399142029e-09 1.6785293155408e-08 2.6398083718959242e-09 2.905540131032467 0.9651830233633518 0.102901995414868 -1.4388490399142029e-09 1.6785293155408e-08 2.6398083718959242e-09 10.27859978377819 0.7318009994924068 0.025912300043273717 -1.4388490399142029e-09 1.6785293155408e-08 2.6398083718959242e-09 2.221670038998127 -0.733487019315362 -0.2089200052432716 0.0 0.0 0.0 -53.793697357177734 7.96888992190361 -16.985899955034256 27.170200645923615 -43.54190021753311 -90.5416989326477 2.2559900768101215 -38.58629912137985 6.438560262322426 -2.1793766791233793e-09 5.550759851757903e-10 -1.2227019396959804e-09 -3.735891596079455e-09 8.773781701165717e-10 -2.1589130483334884e-09 -2.1793766791233793e-09 5.550759851757903e-10 -1.2227019396959804e-09 -7.7309102565050125 5.474880114197731 -0.41731400415301323 -2.1793766791233793e-09 5.550759851757903e-10 -1.2227019396959804e-09 -2.905540131032467 0.9651830233633518 -0.102901995414868 -2.1793766791233793e-09 5.550759851757903e-10 -1.2227019396959804e-09 -10.27859978377819 0.7318009994924068 -0.025912300043273717 -2.1793766791233793e-09 5.550759851757903e-10 -1.2227019396959804e-09 -2.221670038998127 -0.733487019315362 0.2089200052432716 0.0 0.0 0.0 -78.90960216522217 -37.196799516677856 -65.54669737815857 -173.6300003528595 80.27399897575378 175.56800365447998 -1.4474800787866116 -24.8483008146286 -4.037690162658691 0.0 0.0 0.0 95.63490271568298 -51.346701979637146 78.39620053768158 170.7230007648468 82.64490008354187 -171.30800127983093 -7.733420133590698 -21.640499532222748 -11.852999478578568
0.018499999772757292 42.85169982910156 -0.487199991941452 -166.17000460624695 82.33499765396118 -157.6300013065338 -5.273619890213013 13.395199924707413 17.004400491714478 -3.54660015553236 -12.997900396585464 4.134109877049923 1.166179971769452 14.811500161886215 12.734799832105637 -0.7441710121929646 -20.458200573921204 24.973101317882538 0.0 0.0 0.0 0.0 0.0 0.0 0.0 0.0 0.0 20.406299829483032 64.67709839344025 39.72099959850311 -27.412299513816833 -42.800100445747375 89.1042011976242 -0.0176987997838296 3.7978899478912354 0.5345469899475574 -1.5411671938636573e-09 6.548361852765083e-09 -4.1950443119276315e-10 -2.660272002685815e-09 1.1331735549902078e-08 -7.16227077646181e-10 -1.5411671938636573e-09 6.548361852765083e-09 -4.1950443119276315e-10 7.7309102565050125 5.474880114197731 0.41731400415301323 -1.5411671938636573e-09 6.548361852765083e-09 -4.1950443119276315e-10 2.905540131032467 0.9651830233633518 0.102901995414868 -1.5411671938636573e-09 6.548361852765083e-09 -4.1950443119276315e-10 10.27859978377819 0.7318009994924068 0.025912300043273717 -1.5411671938636573e-09 6.548361852765083e-09 -4.1950443119276315e-10 2.221670038998127 -0.733487019315362 -0.2089200052432716 0.0 0.0 0.0 -54.03230130672455 8.143159747123718 -17.262600660324097 27.156599164009094 -43.581401109695435 -90.61869978904724 2.2614099830389023 -38.62400025129318 6.44726000726223 2.18577156374522e-09 -8.313350008393172e-10 7.980816008057445e-10 3.7486813653231366e-09 -1.3275780474941712e-09 1.4426859706873074e-09 2.18577156374522e-09 -8.313350008393172e-10 7.980816008057445e-10 -7.7309102565050125 5.474880114197731 -0.41731400415301323 2.18577156374522e-09 -8.313350008393172e-10 7.980816008057445e-10 -2.905540131032467 0.9651830233633518 -0.102901995414868 2.18577156374522e-09 -8.313350008393172e-10 7.980816008057445e-10 -10.27859978377819 0.7318009994924068 -0.025912300043273717 2.18577156374522e-09 -8.313350008393172e-10 7.980816008057445e-10 -2.221670038998127 -0.733487019315362 0.2089200052432716 0.0 0.0 0.0 -79.88300263881683 -36.812200248241425 -65.9605997800827 -174.0250039100647 79.48750019073486 175.96500277519226 -1.0141800250858068 -24.98730093240738 -3.3021100983023643 0.0 0.0 0.0 97.09199666976929 -51.13659918308258 79.57939803600311 171.77499532699585 81.55080020427704 -172.34700322151184 -7.865239977836609 -21.742199510335922 -11.959000378847122
0.0030999998562037945 42.281700134277344 -0.5880999937653542 -165.53499698638916 82.17169940471649 -157.2599959373474 -5.080909878015518 13.696000277996063 17.063000053167343 -3.597100116312504 -13.04900050163269 4.138939864933491 1.1463300324976444 14.811399579048157 12.737299650907516 -0.610332009382546 -20.39289951324463 25.00279873609543 0.0 0.0 0.0 0.0 0.0 0.0 0.0 0.0 0.0 19.764799922704697 64.47400152683258 40.41969895362854 -27.435200214385986 -42.72480010986328 88.96019876003265 -0.018746499699773267 3.9037198573350906 0.5494920071214437 -1.1600320704019396e-09 1.9184653865522705e-09 -1.2022383089060895e-09 -2.0028778635605704e-09 3.3227820495085325e-09 -2.071942617476452e-09 -1.1600320704019396e-09 1.9184653865522705e-09 -1.2022383089060895e-09 7.7309102565050125 5.474880114197731 0.41731400415301323 -1.1600320704019396e-09 1.9184653865522705e-09 -1.2022383089060895e-09 2.905540131032467 0.9651830233633518 0.102901995414868 -1.1600320704019396e-09 1.9184653865522705e-09 -1.2022383089060895e-09 10.27859978377819 0.7318009994924068 0.025912300043273717 -1.1600320704019396e-09 1.9184653865522705e-09 -1.2022383089060895e-09 2.221670038998127 -0.733487019315362 -0.2089200052432716 0.0 0.0 0.0 -54.203399419784546 8.309769853949547 -17.529099583625793 27.152900397777557 -43.59210044145584 -90.63950300216675 2.2615999169647694 -38.625301122665405 6.44756980240345 2.7536373181646923e-09 -1.1178258318977896e-09 1.0027179087046534e-09 4.724540758616058e-09 -1.8059154172078706e-09 1.8059154172078706e-09 2.7536373181646923e-09 -1.1178258318977896e-09 1.0027179087046534e-09 -7.7309102565050125 5.474880114197731 -0.41731400415301323 2.7536373181646923e-09 -1.1178258318977896e-09 1.0027179087046534e-09 -2.905540131032467 0.9651830233633518 -0.102901995414868 2.7536373181646923e-09 -1.1178258318977896e-09 1.0027179087046534e-09 -10.27859978377819 0.7318009994924068 -0.025912300043273717 2.7536373181646923e-09 -1.1178258318977896e-09 1.0027179087046534e-09 -2.221670038998127 -0.733487019315362 0.2089200052432716 0.0 0.0 0.0 -80.66709816455841 -36.5816992521286 -66.24799847602844 -174.3630051612854 78.75960230827332 176.33999705314636 -0.9008540119975805 -25.052899718284607 -3.1301000341773033 0.0 0.0 0.0 98.54459524154663 -50.911298990249634 80.69510042667389 172.5350046157837 80.53030014038086 -173.09399843215942 -7.984309941530228 -21.84739977121353 -12.044699639081955
